# xmcd
#
# Track frame offsets:
#	150
#	13352
#	28172
#	41461
#	53146
#	66924
#	79763
#	93198
#	106878
#	117688
#	131113
#	143317
#
# Disc length: 2105 seconds
#
# Revision: 0
# Processed by: cddbd v1.5.2PL0 Copyright (c) Steve Scherf et al.
# Submitted via: EasyCDDAExtractor 16.0.6.1
#
DISCID=a208370c
DTITLE=Παπαδοπούλου Πίτσα - Ο καινούργιος δίσκος-Π. Παπαδοπούλου
DYEAR=1977
DGENRE=Λαϊκή
TTITLE0=Παπαδοπούλου Πίτσα - Απόψε πόνεσα [Θ. Δερβενιώτη-Δ. Σουμαλεύρη]
TTITLE1=Παπαδοπούλου Πίτσα - Βάλε κι άλλο να πιούμε [Σ. Χρυσίνη-Κ. Πολίτη]
TTITLE2=Παπαδοπούλου Πίτσα - Ένα παιδί δυστυχισμένο [Σ. Χρυσίνη-Ουρανία Λιανδρ
TTITLE2=άκη]
TTITLE3=Παπαδοπούλου Πίτσα - Ή μ' αφήνεις, ή με παίρνεις [Β. Καραπατάκη-Α. Δρα
TTITLE3=τσέλα]
TTITLE4=Παπαδοπούλου Πίτσα-Κερμανίδης Πόλυς - Εμείς μαζί θα ζήσουμε [Χρ. Κολοκ
TTITLE4=οτρώνης]
TTITLE5=Παπαδοπούλου Πίτσα-Καββαδίας Απόστολος - Σκέψου και γύρισε κοντά μου [
TTITLE5=Θ. Δερβενιώτη-Ε. Φυλακτού]
TTITLE6=Παπαδοπούλου Πίτσα - Οι μαύρες μπόρες [Λ. Κουλούρη-Ζ. Χονδρού]
TTITLE7=Παπαδοπούλου Πίτσα - Τα πρώτα μονοπάτια [Λ. Κουλούρη-Ι. Συμεωνίδη]
TTITLE8=Παπαδοπούλου Πίτσα-χορωδία - Γύρισα μετανοιωμένη [Χρ. Κολοκοτρώνη]
TTITLE9=Παπαδοπούλου Πίτσα - Μονάχη μου στην ερημιά [Μιχ. Αντωνιάδη-Ν. Μεταξά]
TTITLE10=Παπαδοπούλου Πίτσα-άγνωστος - Σαν το κύμα βολοδέρνω [Μιχ. Αντωνιάδη-Ν
TTITLE10=Μεταξά]
TTITLE11=Άνευ ερμηνευτού - Τσιφτετέλι [ορχηστρ., Θ. Βύζας]
EXTD=
EXTT0=
EXTT1=
EXTT2=
EXTT3=
EXTT4=
EXTT5=
EXTT6=
EXTT7=
EXTT8=
EXTT9=
EXTT10=
EXTT11=
PLAYORDER=
